<?xml version="1.0" encoding="UTF-8"?>
<!DOCTYPE svg PUBLIC "-//W3C//DTD SVG 1.1//EN" "http://www.w3.org/Graphics/SVG/1.1/DTD/svg11.dtd">
<!-- Creator: CorelDRAW X6 -->
<svg xmlns="http://www.w3.org/2000/svg" xml:space="preserve" width="100%" height="100%" version="1.1" style="shape-rendering:geometricPrecision; text-rendering:geometricPrecision; image-rendering:optimizeQuality; fill-rule:evenodd; clip-rule:evenodd"
viewBox="0 0 500 500"
 xmlns:xlink="http://www.w3.org/1999/xlink">
 
 <defs>
 <symbol viewBox="0 0 44 44" id='avatar'>
 <circle cx="22" cy="22" r="22" style="fill:rgba(var(--txt-white-x),1);" />
 <path d="M32 30.067V31a2 2 0 01-2 2H14a2 2 0 01-2-2v-.933S12 24.2 22 24.2s10 5.867 10 5.867zm-5-13.934a5.23 5.23 0 00-.843-2.852 5.03 5.03 0 00-2.244-1.89 4.88 4.88 0 00-2.889-.292c-.97.198-1.86.687-2.56 1.405a5.177 5.177 0 00-1.368 2.628 5.26 5.26 0 00.285 2.966 5.106 5.106 0 001.841 2.303 4.908 4.908 0 002.778.866c1.326 0 2.598-.541 3.535-1.504A5.203 5.203 0 0027 16.133z" fill=" rgba(var(--primary-toggle),1)"/>
 </symbol>
 

  <symbol viewBox="0 0 24 24" id="generalSetting">
  <g fill="none" fill-rule="evenodd" stroke="rgba(var(--primary-color),1)" stroke-linecap="round" stroke-linejoin="round" stroke-width="1.5" transform="translate(2.5 1.5)"><path d="m18.307 6.124-.623-1.08a1.913 1.913 0 0 0-2.608-.705h0a1.904 1.904 0 0 1-2.61-.678 1.83 1.83 0 0 1-.255-.915h0A1.913 1.913 0 0 0 10.297.778H9.043A1.904 1.904 0 0 0 7.14 2.691h0a1.913 1.913 0 0 1-1.913 1.886 1.83 1.83 0 0 1-.916-.257h0a1.913 1.913 0 0 0-2.608.705l-.669 1.099a1.913 1.913 0 0 0 .696 2.608h0a1.913 1.913 0 0 1 0 3.314h0a1.904 1.904 0 0 0-.696 2.6h0l.632 1.089a1.913 1.913 0 0 0 2.609.741h0a1.895 1.895 0 0 1 2.6.696c.164.277.252.593.255.915h0c0 1.057.857 1.913 1.913 1.913h1.254c1.053 0 1.908-.85 1.914-1.904h0a1.904 1.904 0 0 1 1.913-1.913c.321.009.636.097.915.256h0a1.913 1.913 0 0 0 2.609-.695h0l.659-1.099a1.904 1.904 0 0 0-.696-2.608h0a1.904 1.904 0 0 1-.696-2.61c.166-.289.406-.529.696-.695h0a1.913 1.913 0 0 0 .696-2.6h0v-.008Z"/>
  <circle cx="9.675" cy="10.389" r="2.636" stroke=' rgba(var(--txt-main_color),0.7)'/>
  </g>
  </symbol>

<symbol viewBox="0 0 122.88 101.46" id="employees" style="enable-background:new 0 0 122.88 101.46">
<style type="text/css">.st0{fill-rule:evenodd;clip-rule:evenodd;}</style>
<g>
<path class="st0"  d="M85.07,83.72l2.48-8.59l-1.21-1.33c-0.55-0.8-0.67-1.5-0.36-2.1c0.66-1.3,2.02-1.06,3.29-1.06 c1.33,0,2.97-0.25,3.39,1.41c0.14,0.56-0.04,1.14-0.43,1.74l-1.21,1.33l2.48,8.59l-4.21,3.32L85.07,83.72L85.07,83.72z M33.94,64.98c-2.08-2.37-2.26-4.85,0-7.47c2.61,0.66,5,1.79,7.2,3.32c0.48-0.21,1.03-0.29,1.57-0.26c2.29-1.62,5.21-2.28,7.76-3.5 c3.05,2.97,2.72,5.7-0.28,8.24c-1.67-0.38-3.27-0.98-4.79-1.75c-0.04,0.39-0.14,0.82-0.33,1.29l0.78,6.48h-6.22l0.78-6.48 c-0.49-0.82-0.67-1.52-0.65-2.11C37.96,63.82,35.99,64.52,33.94,64.98L33.94,64.98z M25.64,30.37c-0.91,0.04-1.61,0.23-2.08,0.54 c-0.27,0.18-0.47,0.41-0.6,0.69c-0.14,0.31-0.21,0.68-0.2,1.11c0.04,1.26,0.69,2.9,1.97,4.79l0.02,0.03l0,0l4.13,6.56 c1.66,2.63,3.39,5.31,5.55,7.29c2.07,1.9,4.59,3.18,7.91,3.19c3.6,0.01,6.24-1.32,8.38-3.33c2.22-2.08,3.98-4.94,5.71-7.78 l4.65-7.66c0.87-1.98,1.18-3.3,0.98-4.08c-0.12-0.46-0.63-0.69-1.5-0.73c-0.18-0.01-0.37-0.01-0.57-0.01 c-0.21,0.01-0.42,0.02-0.65,0.04c-0.12,0.01-0.24,0-0.36-0.02c-0.41,0.02-0.84-0.01-1.28-0.07l1.59-7.05 c-11.81,1.86-20.65-6.91-33.14-1.75l0.9,8.31C26.56,30.45,26.08,30.44,25.64,30.37L25.64,30.37L25.64,30.37z M31.12,59.67 c-0.08,0.11-0.18,0.21-0.29,0.29c0.39,3.15,0.94,7.19,1.59,11.37H7.86c-1.76,0-3.19,1.65-2.92,3.66l3.41,25.85H5.23 c-2.87-0.22-4.33-1.7-4.58-4.28c0.14-11.55-4.25-25.52,7.92-32.3c4.45-2.49,15.94-3.33,20.95-6.61c0.73-1.38,1.54-3.79,2.05-5.35 l0.07-0.21l0,0l-0.07,0.21c-0.04,0.11,0.1-0.31,0.07-0.21l0,0l0.05-0.15c-1.84-1.98-3.35-4.31-4.79-6.61l-4.13-6.56 c-1.51-2.25-2.29-4.31-2.34-6c-0.02-0.79,0.11-1.52,0.41-2.15c0.31-0.66,0.78-1.22,1.42-1.65c0.3-0.2,0.63-0.37,1-0.51 c-0.27-3.56-0.37-8.05-0.19-11.8c0.09-0.89,0.26-1.78,0.51-2.67c1.51-5.4,6.15-9.29,11.45-11.12c2.57-0.89,1.58-3.01,4.18-2.86 c6.16,0.34,15.67,4.31,19.32,8.52c5.12,5.9,3.8,13.17,3.63,20.37v0c1.14,0.35,1.88,1.07,2.18,2.25c0.33,1.3-0.03,3.14-1.13,5.64 l0,0c-0.02,0.05-0.04,0.09-0.07,0.13l-4.7,7.75c-1.81,2.99-3.65,5.98-6.11,8.28l-0.12,0.11c0.23,0.34,0.49,0.71,0.76,1.1 c0.82,1.2,1.75,2.56,2.61,3.63c5.11,3.18,16.36,4.03,20.75,6.49c1.05,0.59,1.97,1.25,2.77,1.98c0.68-0.6,1.33-1.18,1.85-1.66 c-0.24-0.27-0.48-0.55-0.72-0.82l-2.26-2.63l-1.68,0.04l-3.2,0.08c-2.75-3.16-2.58-9.96-2.31-13.88 c1.28-7.88,4.33-13.56,9.29-16.84c3.36-2.22,5.37-2.35,9.3-2.35c3.43,0,5.53-0.08,8.46,1.85c9.53,6.28,12.49,21.09,7.83,31.07 h-3.33l-0.21,0.25l-0.3,0.35l-1.45,1.74c-0.58,0.69-1.16,1.39-1.79,2.04c0.8,0.78,1.88,1.73,2.87,2.6c0.47,0.41,0.92,0.8,1.32,1.16 c14.91,5.94,18.19,9.4,20.01,28.63c0.34,3.55,0.3,3.39-3.1,3.46c-12.59,0.25-28.64,0-43.16-0.06l0.06-0.45l3.41-25.85 c0.27-2.01-1.16-3.66-2.92-3.66h-1.28h-5.04H53.06c0.59-4.23,1.02-8.26,1.23-11.31c-1.12-1.24-2.32-3-3.34-4.51 c-0.23-0.33-0.45-0.66-0.66-0.96c-2.16,1.45-4.73,2.34-7.95,2.34c-3.59-0.01-6.38-1.24-8.7-3.12 C32.99,55.72,32.04,58.39,31.12,59.67L31.12,59.67z M80.09,67.28c5.05,5.75,4.26,14.82,4.06,23.02l5.13,8.52l12.5-20.74l5.43,0.13 c-1.26-2.54-2.76-4.81-4.44-6.94c-0.45-0.46-1.34-1.24-2.3-2.08c-1.03-0.9-2.14-1.88-2.97-2.69c-0.34,0.29-0.69,0.57-1.07,0.82 c-1.62,1.11-3.63,1.85-6.36,1.84c-2.56,0-4.48-0.72-6.06-1.77c-0.78-0.52-1.47-1.12-2.1-1.75C81.37,66.14,80.74,66.7,80.09,67.28 L80.09,67.28z M42.11,84.99c2.43,0,4.39,1.97,4.39,4.39c0,2.43-1.97,4.39-4.39,4.39c-2.43,0-4.39-1.97-4.39-4.39 C37.72,86.96,39.68,84.99,42.11,84.99L42.11,84.99z M78.57,59.97c-2.66-9.11-1.41-17.48,5.76-24.64c1.27,4.1,4.11,7.48,8.94,9.98 c2.31,1.72,4.54,3.79,6.71,6.17c0.38-1.58-1.08-3.5-2.85-5.48c1.64,0.81,3.15,1.94,4.22,4.13c1.24,2.53,1.22,4.67,0.81,7.42 c-0.13,0.85-0.31,1.65-0.54,2.42c-0.07,0.04-0.14,0.09-0.19,0.15c-0.2,0.24-0.39,0.47-0.57,0.68c-0.07,0.08-0.13,0.15-0.3,0.36 L99.1,62.9c-1.11,1.33-2.23,2.67-3.66,3.64c-1.37,0.94-3.06,1.56-5.38,1.56c-2.13,0-3.75-0.61-5.08-1.49 c-1.38-0.92-2.49-2.18-3.55-3.41l-2.64-3.07C78.73,60.07,78.65,60.01,78.57,59.97L78.57,59.97z"/>
</g>
</symbol>

<symbol id="suppliers" data-name="Layer 1"  viewBox="0 0 122.88 87.76">
<defs><style>.cls-1{fill-rule:evenodd;}</style></defs>
<title>car-report</title>
<path class="cls-1" d="M9.31,42c-10-5.11-8.9-10.8,1.2-10.21l2.26,4.24,4.66-14.49c1.83-5.7,4.87-10.87,10.85-10.87H64.64v5.7H30.26c-4.55,0-6.88,3.94-8.29,8.28L17.6,39.24v0h47V65.4a8.6,8.6,0,0,0,8.53,8.53H112l-.27,4.42v6a3.4,3.4,0,0,1-3.4,3.39H93.88a3.4,3.4,0,0,1-3.4-3.39V81.64H22v2.73a3.4,3.4,0,0,1-3.39,3.39H4.12a3.4,3.4,0,0,1-3.4-3.39V76.54a4.73,4.73,0,0,1,0-.53C-.34,62-1.88,49.26,9.31,42ZM75.11,6.44h8.16v5.28H79.75a2.9,2.9,0,0,0-2.88,2.87v44.3a2.89,2.89,0,0,0,2.88,2.87h35.08a2.89,2.89,0,0,0,2.88-2.87V14.59a2.9,2.9,0,0,0-2.88-2.87h-3.52V6.44h8.16a3.43,3.43,0,0,1,3.41,3.41V63.23a3.43,3.43,0,0,1-3.41,3.4H75.11a3.43,3.43,0,0,1-3.41-3.4V9.85a3.41,3.41,0,0,1,3.41-3.41ZM90.7,50.63a1.83,1.83,0,1,1,0-3.66h13.19a1.83,1.83,0,0,1,0,3.66Zm-3.9-11a1.83,1.83,0,1,1,0-3.66h21a1.83,1.83,0,0,1,0,3.66ZM83.36,28.54a1.83,1.83,0,1,1,0-3.65h27.86a1.83,1.83,0,1,1,0,3.65ZM88,4.75h3.86a5.13,5.13,0,0,1,10.22,0l4.52,0a.58.58,0,0,1,.57.57V13a.58.58,0,0,1-.57.57H88a.58.58,0,0,1-.57-.57V5.32A.57.57,0,0,1,88,4.75Zm6.86,2.34a3.85,3.85,0,0,0,1.38,1.19,2.44,2.44,0,0,0,1.34,0,3.75,3.75,0,0,0,1.61-1.71,3.33,3.33,0,0,0,0-.56,2.3,2.3,0,1,0-4.6,0,2.67,2.67,0,0,0,.22,1.06Zm-67,51.61L14.94,57.08c-3-.34-3.86.94-2.82,3.56L13.51,64A4.86,4.86,0,0,0,15.25,66a5.83,5.83,0,0,0,2.88.79l11.48.09c2.77,0,4-1.11,3.1-3.66a6.18,6.18,0,0,0-4.9-4.48Z"/>
</symbol>

<symbol id="vehicles" data-name="Layer 1" viewBox="0 0 122.88 53.49"><defs>
<style>.cls-1{fill-rule:evenodd;}</style></defs><title>cars</title>
<path class="cls-1"  d="M93.43.94h13c4,0,6.3,3.39,7.27,7.27L116,17.62l1.34-2.54c6.95-.4,7.57,3.64.22,7.12L118.78,24c4.84,5,4.38,9.93,3.63,22.21v4a2.27,2.27,0,0,1-2.27,2.27h-9.71a2.27,2.27,0,0,1-2.27-2.27V48.45h-3.6V47l0-.63c.18-2.92.34-5.49.42-7.79l5.73-.05a3.88,3.88,0,0,0,1.93-.53,3.3,3.3,0,0,0,1.17-1.3l.93-2.26c.69-1.76.14-2.61-1.89-2.39L105,33a19.87,19.87,0,0,0-2.65-9.45,11.6,11.6,0,0,0,1.4-1.91h0a10.55,10.55,0,0,0,.73-1.57h8.14l-2.35-9.76c-.64-3-2.49-5.55-5.55-5.55H95A21.78,21.78,0,0,0,93.43.94ZM31.27,21.74c-7-3.54-6.17-7.49.83-7.08l1.57,2.94,3.23-10C38.17,3.59,40.29,0,44.44,0H81c4.15,0,6.53,3.52,7.54,7.54L91,17.29l1.4-2.63c7.2-.42,7.85,3.77.22,7.38l1.24,1.9c5,5.15,4.54,10.29,3.76,23v4.18a2.36,2.36,0,0,1-2.35,2.36H85.17a2.36,2.36,0,0,1-2.35-2.36V49.24H40.08v1.89a2.36,2.36,0,0,1-2.36,2.36h-10a2.36,2.36,0,0,1-2.36-2.36V45.7c0-.12,0-.24,0-.37-.76-9.76-1.84-18.56,5.93-23.59ZM44.11,33.32l-8.93-1.13c-2.11-.23-2.68.66-2,2.47l1,2.35a3.36,3.36,0,0,0,1.2,1.34,4.09,4.09,0,0,0,2,.56l8,.06c1.92,0,2.75-.77,2.15-2.54a4.3,4.3,0,0,0-3.4-3.11Zm34.67,0,8.93-1.13c2.1-.23,2.67.66,2,2.47L88.7,37a3.38,3.38,0,0,1-1.21,1.34,4.06,4.06,0,0,1-2,.56l-8,.06c-1.93,0-2.76-.77-2.16-2.54a4.31,4.31,0,0,1,3.41-3.11ZM37,19.82H87.38L85,9.7C84.28,6.62,82.36,4,79.2,4H45.81C42.65,4,41,6.69,40.06,9.7L37,19.82v0ZM32.15.94H16.47c-4,0-6.3,3.39-7.27,7.27L6.85,17.62,5.51,15.08c-6.95-.4-7.57,3.64-.22,7.12L4.1,24C-.74,29-.29,34,.47,46.25v4a2.27,2.27,0,0,0,2.27,2.27h9.71a2.27,2.27,0,0,0,2.27-2.27V48.45h3.62V45.36l-.06-.74c-.16-2.08-.33-4.11-.42-6.09l-5.73-.05A3.88,3.88,0,0,1,10.21,38,3.3,3.3,0,0,1,9,36.65l-.93-2.26C7.42,32.63,8,31.78,10,32l7.88,1a21.93,21.93,0,0,1,3.19-10.85c-.17-.25-.31-.5-.45-.74A11.35,11.35,0,0,1,20,20.06h-9.7l2.35-9.76c.64-3,2.49-5.55,5.55-5.55h12.3A26.67,26.67,0,0,1,32.15.94Z"/>
</symbol>

<symbol id="analytics"  shape-rendering="geometricPrecision" text-rendering="geometricPrecision" image-rendering="optimizeQuality" fill-rule="evenodd" clip-rule="evenodd" viewBox="0 0 512 406.52">
<path  d="M512 0v339.71H336.77v34.2h51.21v32.61H122.93v-32.61h54.85v-34.2H0V0h512zM60.73 251.43h342.85v15.07H60.73v-15.07zm0-40.23H279.5v15.07H60.73V211.2zm334.59-84.15 58.05.2c-.05 15.9-6.28 31.12-17.31 42.28a59.295 59.295 0 0 1-8.49 7.1l-32.25-49.58zm-5.95-11.83-3.1-63.73c-.06-1.26.89-2.33 2.11-2.39.36-.02.78-.04 1.25-.05.39-.02.81-.02 1.25-.03 17.05-.19 32.69 6.45 44.38 17.5 11.69 11.05 19.42 26.52 20.64 43.99.08 1.26-.84 2.35-2.07 2.44l-62.08 4.56c-1.22.08-2.29-.86-2.37-2.12-.01-.06-.01-.11-.01-.17zm1.45-61.64 2.88 59.2 57.56-4.22c-1.62-15.33-8.64-28.88-19.01-38.68-10.89-10.3-25.46-16.48-41.33-16.3h-.1zm-8.4 70.74 31.12 55.36c-9.46 5.61-20.2 8.57-31.12 8.57-34.38 0-62.25-28.63-62.25-63.93 0-31.73 22.65-58.65 53.21-63.26l9.04 63.26zM204.76 55.94l-4.96-6.31c-.78-1.09-1.02-2.12-.7-3.07.84-2.56 3.86-2.31 5.95-2.17 5.94.43 19.95.56 23.01.68 2.24.16 3.55 1.84 3.17 4.05-.62 3.09-3.47 17.97-4.49 23.62-.36 1.96-.95 4.51-3.42 4.7-1 .08-1.94-.4-2.82-1.41l-4.95-6.32-2.3-2.92-30.93 20.03c-.39 7.79-6.83 13.99-14.72 13.99-8.14 0-14.74-6.6-14.74-14.74 0-.33.01-.66.03-.98l-17.1-12.35a14.583 14.583 0 0 1-8.41 2.64c-4.26 0-8.09-1.81-10.78-4.7L87.93 86.05c.06.5.08 1.01.08 1.53 0 8.14-6.6 14.74-14.73 14.74-8.14 0-14.74-6.6-14.74-14.74s6.6-14.74 14.74-14.74c2.95 0 5.69.87 8 2.36l31.55-16.91c1.12-7.02 7.21-12.39 14.55-12.39 8.14 0 14.74 6.6 14.74 14.74 0 .32-.01.65-.03.98l17.1 12.35a14.68 14.68 0 0 1 8.41-2.64c3.7 0 7.08 1.37 9.67 3.62l28.11-18.21-.62-.8zm6.78 38.03h20.32c1.17 0 2.13.96 2.13 2.13v78.95c0 1.17-.96 2.13-2.13 2.13h-20.32c-1.16 0-2.13-.96-2.13-2.13V96.1c0-1.17.96-2.13 2.13-2.13zm-49.47 27.06h20.32c1.17 0 2.13.96 2.13 2.13v51.89c0 1.17-.96 2.13-2.13 2.13h-20.32c-1.17 0-2.13-.96-2.13-2.13v-51.89c0-1.17.96-2.13 2.13-2.13zm-49.48-27.06h20.33c1.17 0 2.12.96 2.12 2.13v78.95c0 1.17-.96 2.13-2.12 2.13h-20.33c-1.16 0-2.12-.96-2.12-2.13V96.1c0-1.17.95-2.13 2.12-2.13zm-49.48 31.42h20.33c1.17 0 2.12.97 2.12 2.13v47.53c0 1.17-.96 2.13-2.12 2.13H63.11c-1.16 0-2.12-.96-2.12-2.13v-47.53c0-1.17.95-2.13 2.12-2.13zM15.28 296.18h481.37V15.28H15.28v280.9z"/>
</symbol>

<symbol id="map" data-name="Layer 1"  viewBox="0 0 105.93 122.88">
<defs><style>.cls-1{fill-rule:evenodd;}</style></defs><title>map</title>
<path  class="cls-1" d="M56.92,73.14a1.62,1.62,0,0,1-1.86.06A65.25,65.25,0,0,1,38.92,58.8,51.29,51.29,0,0,1,28.06,35.37C26.77,27.38,28,19.7,32,13.45a27,27,0,0,1,6-6.66A29.23,29.23,0,0,1,56.36,0,26,26,0,0,1,73.82,7.12a26,26,0,0,1,4.66,5.68c4.27,7,5.19,16,3.31,25.12A55.29,55.29,0,0,1,56.92,73.14Zm-19,.74V101.7l30.15,13V78.87a65.17,65.17,0,0,0,6.45-5.63v41.18l25-12.59v-56l-9.61,3.7a61.61,61.61,0,0,0,2.38-7.81l9.3-3.59A3.22,3.22,0,0,1,105.7,40a3.18,3.18,0,0,1,.22,1.16v62.7a3.23,3.23,0,0,1-2,3L72.72,122.53a3.23,3.23,0,0,1-2.92,0l-35-15.17L4.68,122.53a3.22,3.22,0,0,1-4.33-1.42A3.28,3.28,0,0,1,0,119.66V53.24a3.23,3.23,0,0,1,2.32-3.1L18.7,43.82a58.63,58.63,0,0,0,2.16,6.07L6.46,55.44v59l25-12.59V67.09a76.28,76.28,0,0,0,6.46,6.79ZM55.15,14.21A13.72,13.72,0,1,1,41.43,27.93,13.72,13.72,0,0,1,55.15,14.21Z"/>
</symbol>

<symbol id="offices" data-name="Layer 1"  viewBox="0 0 122.88 120.88">
<defs><style>.cls-1{fill-rule:evenodd;}</style></defs><title>office</title>
<path class="cls-1" d="M14.9,7.67H29.38V2.88a2.86,2.86,0,0,1,.84-2h0a2.87,2.87,0,0,1,2-.85H90.62a2.87,2.87,0,0,1,2,.85l.13.13a2.9,2.9,0,0,1,.72,1.9V7.67h14.23a4.56,4.56,0,0,1,4.55,4.54V45.26a4.56,4.56,0,0,1-4.55,4.54H93.5v4.72h27a2.43,2.43,0,0,1,1.7.7h0a2.4,2.4,0,0,1,.71,1.7v62.31a1.64,1.64,0,0,1-1.64,1.64H1.64A1.63,1.63,0,0,1,0,119.24V56.92a2.41,2.41,0,0,1,2.41-2.4h27V49.8H14.9a4.55,4.55,0,0,1-4.54-4.54v-33A4.55,4.55,0,0,1,14.9,7.67ZM29.45,20.05a7.28,7.28,0,0,1,5.62,2.15,8.65,8.65,0,0,1,2,6.07A9.5,9.5,0,0,1,34.87,35a7.94,7.94,0,0,1-6.16,2.37,7.21,7.21,0,0,1-5.62-2.18,8.85,8.85,0,0,1-2-6.17,9.34,9.34,0,0,1,2.17-6.61,8,8,0,0,1,6.17-2.33ZM29,24.18a2.74,2.74,0,0,0-1.52.34,2,2,0,0,0-.73,1.23,10.92,10.92,0,0,0-.22,2.55,16.57,16.57,0,0,0,.23,3.24,2.55,2.55,0,0,0,.78,1.55,2.63,2.63,0,0,0,1.64.44,2.73,2.73,0,0,0,1.52-.35,2,2,0,0,0,.73-1.24,11.14,11.14,0,0,0,.22-2.56,17.23,17.23,0,0,0-.23-3.22,2.56,2.56,0,0,0-.79-1.55A2.6,2.6,0,0,0,29,24.18Zm15.78.15-.08,3h1.76l3-.08.29.36-.31,3.76-3.32-.08h-1.5v.34L44.8,37H39.62l.26-4.9-.26-11.77H50.75l.28.36-.33,3.76-4.13-.15Zm13.26,0-.08,3h1.76l3-.08.29.36-.31,3.76-3.33-.08H57.85v.34L58.06,37H52.88l.26-4.9-.26-11.77H64l.28.36L64,24.48l-4.12-.15Zm13.08,7.29.2,5.41H66.14l.25-4.9-.25-11.77h5.25l-.28,11.26ZM83,20.08a12.17,12.17,0,0,1,4.17.7l-.87,4.09-.34.21a6.33,6.33,0,0,0-1.54-.58,6.61,6.61,0,0,0-1.63-.22,2.65,2.65,0,0,0-2.26.91,5.09,5.09,0,0,0-.7,3,6.51,6.51,0,0,0,.8,3.65A2.85,2.85,0,0,0,83.08,33a9.74,9.74,0,0,0,1.61-.15,7.09,7.09,0,0,0,1.56-.4l.41.26-.41,4.07a11.78,11.78,0,0,1-3.58.49q-4.15,0-6.25-2.16c-1.4-1.44-2.1-3.55-2.1-6.31a8.82,8.82,0,0,1,2.26-6.47A8.51,8.51,0,0,1,83,20.08Zm18.36,12.83.28.36-.3,3.76H89.54l.26-4.9-.26-11.77h11.95l.28.36-.33,3.76-4.1-.15H94.69l0,2.34h2.55l2.68-.07.28.36-.31,3.76-3-.08H94.54l0,1,0,1.44H97l4.27-.15ZM32.65,7.67H90.22V3.28H32.65V7.67ZM90.22,49.8H32.65v67.81H90.22V49.8ZM73.33,96.57H82.7a.42.42,0,0,1,.42.42v9.35a.42.42,0,0,1-.42.42H73.33a.42.42,0,0,1-.42-.42V97a.42.42,0,0,1,.42-.42Zm-16.58,0h9.37a.42.42,0,0,1,.42.42v9.35a.42.42,0,0,1-.42.42H56.75a.42.42,0,0,1-.42-.42V97a.42.42,0,0,1,.42-.42Zm-16.58,0h9.37A.42.42,0,0,1,50,97v9.35a.42.42,0,0,1-.42.42H40.17a.42.42,0,0,1-.42-.42V97a.42.42,0,0,1,.42-.42Zm53.31,21h26.13V57.79H93.5v59.82Zm-64.1,0V57.79H3.28v59.82Zm71.51-21h11.46a.28.28,0,0,1,.28.2v5.33c0,.08-.16.21-.28.21H100.89c-.11,0-.28-.1-.28-.21V96.8c0-.11.13-.2.28-.2Zm-90.61,0H22c.15,0,.28.12.28.2v5.33c0,.08-.16.21-.28.21H10.28c-.12,0-.28-.1-.28-.21V96.8c0-.11.13-.2.28-.2Zm90.61-12.95h11.46a.27.27,0,0,1,.28.2v5.33c0,.08-.16.2-.28.2H100.89c-.12,0-.28-.09-.28-.2V83.85c0-.11.13-.2.28-.2Zm0-13h11.46a.28.28,0,0,1,.28.2v5.34c0,.07-.16.2-.28.2H100.89c-.11,0-.28-.09-.28-.2V70.89c0-.1.13-.2.28-.2Zm-90.61,13H22c.15,0,.28.12.28.2v5.33c0,.08-.16.2-.28.2H10.28c-.12,0-.28-.09-.28-.2V83.85c0-.11.13-.2.28-.2Zm0-13H22a.29.29,0,0,1,.28.2v5.34c0,.08-.16.2-.28.2H10.28c-.12,0-.28-.09-.28-.2V70.89c0-.1.13-.2.28-.2ZM73.2,78h9.64a.3.3,0,0,1,.28.28V88a.32.32,0,0,1-.28.27H73.2a.29.29,0,0,1-.28-.27V78.32A.28.28,0,0,1,73.2,78ZM56.62,78h9.64a.3.3,0,0,1,.28.28V88a.32.32,0,0,1-.28.27H56.62a.29.29,0,0,1-.28-.27V78.32a.28.28,0,0,1,.28-.28ZM40,78h9.65a.3.3,0,0,1,.28.28V88a.33.33,0,0,1-.28.27H40a.29.29,0,0,1-.27-.27V78.32A.28.28,0,0,1,40,78ZM73.2,59.32h9.64a.29.29,0,0,1,.28.28v9.64a.32.32,0,0,1-.28.28H73.2a.29.29,0,0,1-.28-.28V59.6a.27.27,0,0,1,.28-.28Zm-16.58,0h9.64a.29.29,0,0,1,.28.28v9.64a.32.32,0,0,1-.28.28H56.62a.29.29,0,0,1-.28-.28V59.6a.27.27,0,0,1,.28-.28ZM40,59.32h9.65a.29.29,0,0,1,.28.28v9.64a.33.33,0,0,1-.28.28H40a.29.29,0,0,1-.27-.28V59.6a.27.27,0,0,1,.27-.28ZM15.1,10.83h92.68a1.37,1.37,0,0,1,1.37,1.37v33a1.38,1.38,0,0,1-1.37,1.37H15.1a1.37,1.37,0,0,1-1.37-1.37v-33a1.37,1.37,0,0,1,1.37-1.37Z"/>
</symbol>

<symbol id="cities" data-name="Layer 1"  viewBox="0 0 122.88 120.98">
<defs><style>.cls-1{fill-rule:evenodd;}</style></defs><title>road-map</title>
<path class="cls-1" d="M23.46,90.44a30.26,30.26,0,0,1-6.64,5.5.93.93,0,0,1-1.07,0A37.48,37.48,0,0,1,6.5,87.72,29.39,29.39,0,0,1,.28,74.3,17.87,17.87,0,0,1,2.51,61.74,15.5,15.5,0,0,1,6,57.93,16.79,16.79,0,0,1,16.49,54a14.82,14.82,0,0,1,10,4.09,14.29,14.29,0,0,1,2.67,3.25c2.45,4,3,9.17,1.9,14.39a31.55,31.55,0,0,1-7.6,14.66Zm-7.07,10.73a9.89,9.89,0,0,1,9.19,6.21,3.27,3.27,0,0,1,.54,0h7.94a4,4,0,0,1,0,7.94H26.12a3.48,3.48,0,0,1-.73-.07,9.9,9.9,0,1,1-9-14ZM107.47,46.6a9.91,9.91,0,1,1-9.08,13.87H86a4,4,0,1,1,0-7.93H98.39a9.9,9.9,0,0,1,9.08-5.94ZM76.69,79.94a4,4,0,1,0,0,7.94h9.55a4,4,0,1,0,0-7.94ZM70.62,60.56a4,4,0,0,0-1.05-7.87,17.57,17.57,0,0,0-9.21,4.15,4,4,0,0,0,3.46,6.88,4.11,4.11,0,0,0,1.74-.88,9.65,9.65,0,0,1,5.06-2.28Zm-8,12.51A4,4,0,0,0,55,75.43l.18.54a17.72,17.72,0,0,0,5.45,7.84,4,4,0,0,0,5.06-6.12,9.83,9.83,0,0,1-3.11-4.62ZM49.93,107.34a4,4,0,0,0,0,7.94h7.94a4,4,0,1,0,0-7.94Zm23.82,0a4,4,0,0,0,0,7.94h7.94a4,4,0,1,0,0-7.94Zm22.55-.44a4,4,0,0,0-.12,7.52,3.92,3.92,0,0,0,2.53,0,17.64,17.64,0,0,0,8.35-5.67,4,4,0,1,0-6.15-5l-.2.23a9.81,9.81,0,0,1-4.41,2.89Zm5.78-13.68a4,4,0,0,0,7-3.68,17.91,17.91,0,0,0-7-7.27,4,4,0,1,0-3.94,6.89,9.93,9.93,0,0,1,3.86,4.06ZM114.75,36.4a30.65,30.65,0,0,1-6.65,5.5,1,1,0,0,1-1.07,0,37.39,37.39,0,0,1-9.24-8.25,29.44,29.44,0,0,1-6.22-13.42A17.81,17.81,0,0,1,93.8,7.7a15.32,15.32,0,0,1,3.44-3.82A16.73,16.73,0,0,1,107.78,0a15.39,15.39,0,0,1,12.67,7.33c2.45,4,3,9.18,1.9,14.39a31.62,31.62,0,0,1-7.6,14.67ZM107.08,8.14A7.86,7.86,0,1,1,99.22,16a7.85,7.85,0,0,1,7.86-7.86Zm-91.29,54A7.86,7.86,0,1,1,7.93,70a7.85,7.85,0,0,1,7.86-7.86Z"/>
</symbol>

<symbol id="trips" data-name="Layer 1" viewBox="0 0 122.88 117.62"><defs>
<style>.cls-1{fill-rule:evenodd;}</style></defs><title>road-traffic</title>
<path class="cls-1" d="M0,117.62,30,0h7.08l-26,117.62ZM39.44,28.37c-4.71-2.4-4.17-5.07.56-4.79l1.06,2,2.18-6.79c.86-2.68,2.29-5.1,5.09-5.1H76.27c2.81,0,4.42,2.38,5.1,5.09L83,25.36,84,23.58c4.87-.28,5.3,2.55.15,5l.84,1.28c3.38,3.48,3.07,7,2.54,15.55v2.83a1.6,1.6,0,0,1-1.59,1.59h-6.8a1.6,1.6,0,0,1-1.59-1.59V47H45.39v1.28a1.6,1.6,0,0,1-1.59,1.59H37a1.6,1.6,0,0,1-1.59-1.59V44.56a2,2,0,0,1,0-.25c-.52-6.6-1.24-12.54,4-15.94Zm8.67,7.82-6-.76c-1.43-.16-1.81.44-1.32,1.67l.65,1.58a2.27,2.27,0,0,0,.81.91,2.74,2.74,0,0,0,1.36.38L49,40c1.3,0,1.86-.52,1.45-1.72a2.9,2.9,0,0,0-2.3-2.1Zm26.66,0,6-.76c1.43-.16,1.81.44,1.33,1.67l-.66,1.58a2.27,2.27,0,0,1-.81.91,2.7,2.7,0,0,1-1.35.38l-5.38,0c-1.31,0-1.87-.52-1.46-1.72a2.92,2.92,0,0,1,2.3-2.1ZM43.33,27.07H80.59l-1.65-6.83c-.45-2.09-1.74-3.89-3.88-3.89H49.26c-2.13,0-3.23,1.85-3.88,3.89l-2.05,6.83v0ZM29.17,86.15c-6.91-3.51-6.11-7.42.83-7l1.55,2.91,3.21-10c1.25-3.92,3.35-7.48,7.46-7.48h41c4.11,0,6.48,3.49,7.47,7.47l2.41,9.66,1.38-2.6c7.14-.42,7.78,3.73.22,7.31l1.23,1.88c5,5.11,4.5,10.2,3.73,22.81v4.14a2.35,2.35,0,0,1-2.34,2.34h-10A2.35,2.35,0,0,1,85,115.28v-1.87H37.9v1.87a2.35,2.35,0,0,1-2.33,2.34h-10a2.35,2.35,0,0,1-2.33-2.34V109.9c0-.13,0-.25,0-.37-.75-9.67-1.81-18.39,5.88-23.38ZM41.89,97.63,33,96.51c-2.09-.23-2.65.65-1.94,2.45l1,2.32a3.36,3.36,0,0,0,1.2,1.34,4.2,4.2,0,0,0,2,.55l7.89.06c1.91,0,2.73-.77,2.14-2.52a4.28,4.28,0,0,0-3.38-3.08Zm39.1,0,8.85-1.12c2.09-.23,2.65.65,1.94,2.45l-1,2.32a3.41,3.41,0,0,1-1.19,1.34,4.24,4.24,0,0,1-2,.55l-7.89.06c-1.91,0-2.73-.77-2.13-2.52A4.27,4.27,0,0,1,81,97.63ZM34.88,84.25H89.52l-2.41-10c-.66-3.06-2.56-5.7-5.7-5.7H43.58c-3.13,0-4.73,2.71-5.7,5.7l-3,10v0ZM64.15,0l.38,9.34H58.19L58.75,0Zm2.63,51.17.56,8H55.47l.45-8ZM93.54,0l29.34,117.62h-10.5L86,0Z"/>
</symbol>

<symbol id="dashboard" data-name="Layer 1" viewBox="0 0 122.88 121.92">
<title>widget</title>
<path d="M6.6,121.92H47.51a6.56,6.56,0,0,0,2.83-.64,6.68,6.68,0,0,0,2.27-1.79,6.63,6.63,0,0,0,1.5-4.17V74.58A6.56,6.56,0,0,0,53.58,72,6.62,6.62,0,0,0,50,68.47,6.56,6.56,0,0,0,47.51,68H6.6a6.5,6.5,0,0,0-2.43.48,6.44,6.44,0,0,0-2.11,1.34A6.6,6.6,0,0,0,.55,72,6.3,6.3,0,0,0,0,74.58v40.74a6.54,6.54,0,0,0,.43,2.32,6.72,6.72,0,0,0,1.2,2l.26.27a6.88,6.88,0,0,0,2,1.39,6.71,6.71,0,0,0,2.73.6ZM59.3,28.44,86,1.77A6.19,6.19,0,0,1,88.22.34,6.24,6.24,0,0,1,90.87,0a6,6,0,0,1,3.69,1.74l26.55,26.55a6,6,0,0,1,1.33,2,6.13,6.13,0,0,1-1.33,6.58L94.45,63.58a6,6,0,0,1-1.9,1.27,5.92,5.92,0,0,1-2.24.5,6.11,6.11,0,0,1-2.41-.43,5.74,5.74,0,0,1-2.05-1.34L59.3,37a6.09,6.09,0,0,1-1.76-3.88V32.8a6.14,6.14,0,0,1,1.77-4.36ZM6.6,59.64H47.51a6.56,6.56,0,0,0,5.1-2.43,6.46,6.46,0,0,0,1.11-2,6.59,6.59,0,0,0,.39-2.21V12.31a6.61,6.61,0,0,0-.53-2.58A6.62,6.62,0,0,0,50,6.19a6.56,6.56,0,0,0-2.45-.48H6.6a6.5,6.5,0,0,0-2.43.48A6.44,6.44,0,0,0,2.06,7.53,6.6,6.6,0,0,0,.55,9.71,6.31,6.31,0,0,0,0,12.31V53.05a6.48,6.48,0,0,0,.43,2.31,6.6,6.6,0,0,0,1.2,2l.26.27a6.88,6.88,0,0,0,2,1.39,6.71,6.71,0,0,0,2.73.6Zm40.92-6.57H6.6l0,0V12.28c3.51,0,40.93,0,41,0,0,3.44,0,40.75,0,40.77Zm22.23,68.85h40.91a6.56,6.56,0,0,0,2.83-.64,6.68,6.68,0,0,0,2.27-1.79,6.63,6.63,0,0,0,1.5-4.17V74.58a6.56,6.56,0,0,0-.53-2.57,6.62,6.62,0,0,0-3.62-3.54,6.56,6.56,0,0,0-2.45-.48H69.75a6.75,6.75,0,0,0-4.54,1.82A6.6,6.6,0,0,0,63.7,72a6.3,6.3,0,0,0-.55,2.59v40.74a6.54,6.54,0,0,0,.43,2.32,6.72,6.72,0,0,0,1.2,2l.26.27a6.88,6.88,0,0,0,2,1.39,6.71,6.71,0,0,0,2.73.6Zm40.92-6.57H69.75l0,0,0-40.77c3.51,0,40.93,0,41,0,0,3.44,0,40.75,0,40.77Zm-63.15,0H6.6l0,0V74.56c3.51,0,40.93,0,41,0,0,3.44,0,40.75,0,40.77Z"/>
</symbol>

<svg id="passengers" data-name="Layer 1"  viewBox="0 0 122.88 107.95">
<defs><style>.cls-1{fill-rule:evenodd;}</style></defs><title>travelling</title>
<path class="cls-1" d="M115.81,32.94c1.92-.64,3.94.38,5.28,2a9.31,9.31,0,0,1,1,2.54,7.64,7.64,0,0,1,.19,2.52c-1.08,2.65-3,3.6-5.27,5.15a48.92,48.92,0,0,1-6.88,2.91c-1.27.47-2.55.91-3.85,1.31s-2.6.77-3.9,1.09a15.24,15.24,0,0,1-3.36.37A15.49,15.49,0,0,1,88.89,47a35.57,35.57,0,0,1-3-2.89l-.3-.31L80.41,58.45A51,51,0,0,0,86.61,62c6.7,3.13,12.21,5.71,13.39,16.24.16,1.36.15,8.89.09,14.85h22.79V108H0v-7.22H19.49a4.92,4.92,0,1,1,7.26-1.89,4.83,4.83,0,0,1-1.62,1.89H51.06C52.37,97.05,54.85,89.2,56,85.94c2.52-7.22,4.94-14.64,6.71-20.53a19.25,19.25,0,0,1-2.76-4.36A9.74,9.74,0,0,1,59,57a10,10,0,0,1,.14-1.64l6.34-18.14c-1.34-.07-2.88-.47-4.14.09-2.44,1.06-6,6.26-8.16,8.4l-2.85,2.88c-2.11,2.14-3.55,4.51-6.66,4.44l-1.86,3.87,0,0L26.18,89.51l-.32-.17A8.16,8.16,0,0,0,15,93.16a8.62,8.62,0,0,0-.39,1l-8.25-4L4.48,94,0,91.61l2.11-4.39a5.24,5.24,0,0,1-.29-5L7.89,69.6l6,2.72A1.3,1.3,0,1,0,15,70L9,67.25l3.7-7.69L19,62.4A1.3,1.3,0,1,0,20,60l-6.17-2.8L17,50.68a5.21,5.21,0,0,1,6.94-2.43L38,55l1.74-3.62a4.89,4.89,0,0,1-.57-6.91l6.57-6.65c3.17-3.22,6.17-7.65,10.07-9.85A20.84,20.84,0,0,1,68,25.22c2.07,0,4.26.23,6.32.43l2.41.21c9.48.61,13.89,5.59,17.33,9.47,1.53,1.72,2.84,3.19,4.26,3.87.67.31,1.72-.13,2.92-.63L110,35.31,115.81,33v0ZM88,93.13c.08-5.55.14-11.74.06-12.95s-.86-4.24-2.08-4.8a52.1,52.1,0,0,0-5-1.87c-2.37-.78-4.31-1.57-6.65-2.22-1.72,5.67-4,12.51-6.52,19l-3.59,10.41H76.65v-7.6ZM76.43.61a11.35,11.35,0,1,1-7.67,10.73A11.35,11.35,0,0,1,76.43.61Z"/>
</svg>

<symbol viewBox="0 0 1010 658.437" id="academies">
<g >
<path d="M667.816 163.443v-.68c0-11.908-1.345-23.35-3.712-34.54C648.269 54.912 583.01 0 505.036 0c-78.62 0-144.255 55.665-159.498 129.8a163.118 163.118 0 0 0-3.265 31.85c0 .359-.071.753-.071 1.112 0 82.493 61.457 150.532 141.027 161.185 7.155.931 14.382 1.613 21.807 1.613 6.527 0 12.84-.43 19.134-1.219 80.629-9.505 143.27-77.795 143.646-160.898zM879.303 386.283l-65.368 87.047-65.367-87.047c-7.656 2.69-14.955 6.025-22.2 9.647 52.4 52.544 84.93 125.282 84.93 205.91v56.597H1010v-84.502c0-86.76-54.625-160.287-130.697-187.652zM721.257 165.058c-3.91 4.59-7.46 9.397-10.634 14.526-11.873 18.83-18.867 41.03-18.867 64.882 0 7.245.719 14.275 1.937 21.09 4.25 24.245 15.53 45.908 31.778 62.946 8.447 8.966 18.22 16.605 29.052 22.703 17.592 9.79 37.803 15.386 59.412 15.386 67.412 0 122.144-54.66 122.144-122.125 0-55.773-37.462-102.793-88.536-117.39-4.34-1.184-8.787-2.153-13.253-2.942a138.606 138.606 0 0 0-10.921-1.291c-3.121-.215-6.223-.538-9.434-.538-37.14 0-70.28 16.642-92.678 42.753zM130.662 386.283l65.402 87.047 65.367-87.047c7.657 2.69 14.956 6.025 22.2 9.647-52.454 52.544-84.949 125.282-84.949 205.91v56.597H0v-84.502c0-86.76 54.624-160.287 130.662-187.652zM288.725 165.058c3.91 4.59 7.496 9.397 10.688 14.526 11.836 18.83 18.794 41.03 18.794 64.882 0 7.245-.717 14.275-1.937 21.09-4.214 24.245-15.494 45.908-31.741 62.946a122.566 122.566 0 0 1-29.052 22.703c-17.593 9.79-37.804 15.386-59.413 15.386-67.411 0-122.144-54.66-122.144-122.125 0-55.773 37.48-102.793 88.555-117.39 4.304-1.184 8.734-2.153 13.306-2.942 3.48-.574 7.174-1.004 10.85-1.291 3.12-.215 6.223-.538 9.433-.538 37.104 0 70.28 16.642 92.661 42.753zM673.213 399.087c-17.232-14.777-36.44-27.223-57.045-37.158-7.856-3.802-15.799-7.246-24.084-10.258l-21.018 28.12-46.896 62.443-19.224 25.572-21.717-28.943-43.65-58.248-21.663-28.944c-8.644 3.192-17.09 6.886-25.322 10.868-20.605 10.006-39.704 22.523-56.956 37.48-9.504 8.213-18.435 17.216-26.666 26.756-40.548 46.627-65.313 107.852-65.313 175.064v56.598H766.34V601.84c0-67.752-25.124-129.334-66.3-176.283-8.285-9.433-17.251-18.256-26.828-26.47z"/></g>
</symbol>

<symbol viewBox="0 0 122.88 112.51" id="classes">
<path fill="rgba(var(--primary-color),1)" d="M61.44 9.37a51.57 51.57 0 0 1 40.69 83.25l.2.24 6.93 9.14a4.88 4.88 0 0 1-7.77 5.89l-6.14-8.1a51.56 51.56 0 0 1-67.82 0l-6.15 8.1a4.87 4.87 0 0 1-7.76-5.89l7.1-9.36A51.58 51.58 0 0 1 61.44 9.37Zm43.34 12.29a72.26 72.26 0 0 0-10.61-9.14 71 71 0 0 0-10.25-6c23.41-18.69 49.49 6 34.58 33.18-.17.47-.34.94-.53 1.39a69.47 69.47 0 0 0-5-9 71.38 71.38 0 0 0-8.24-10.44Zm-86.68 0a71.75 71.75 0 0 1 10.61-9.14A70.45 70.45 0 0 1 39 6.53c-23.41-18.69-49.49 6-34.58 33.18.17.47.34.94.52 1.39A71.14 71.14 0 0 1 18.1 21.66Zm46 34.05A5.83 5.83 0 0 1 66.51 58h8.29a2.23 2.23 0 0 1 3.42-2.63l4.92 3.8a2.23 2.23 0 0 1 .86 1.74 2.22 2.22 0 0 1-.87 1.75l-4.92 3.8a2.23 2.23 0 0 1-3.42-2.63h-8.28a5.87 5.87 0 1 1-8.34-7.82l.07-11.34a2.22 2.22 0 0 1-2.62-3.44l3.91-4.84a2.21 2.21 0 0 1 1.66-.82h.05a2.23 2.23 0 0 1 1.84.91l3.69 5a2.23 2.23 0 0 1-2.62 3.39l-.07 10.77Zm18.4 36.77a2.47 2.47 0 1 1-4.28 2.46l-1.85-3.2a2.47 2.47 0 0 1 4.28-2.46l1.85 3.2ZM40.38 29.41A2.47 2.47 0 1 1 44.66 27l1.85 3.2a2.47 2.47 0 0 1-4.28 2.46l-1.85-3.2Zm55.07 48.31A2.47 2.47 0 0 1 93 82l-3.2-1.85a2.47 2.47 0 1 1 2.48-4.28l3.2 1.85Zm-68-33.55a2.48 2.48 0 0 1 2.48-4.29l3.2 1.85a2.47 2.47 0 1 1-2.5 4.27l-3.2-1.84Zm71.84 14.3a2.47 2.47 0 0 1 0 4.94h-3.71a2.47 2.47 0 1 1 0-4.94ZM23.6 63.41a2.47 2.47 0 0 1 0-4.94h3.7a2.47 2.47 0 0 1 0 4.94ZM93 39.88a2.47 2.47 0 1 1 2.46 4.29L92.24 46a2.47 2.47 0 1 1-2.47-4.28L93 39.88ZM29.9 82a2.47 2.47 0 0 1-2.46-4.28l3.2-1.85a2.47 2.47 0 0 1 2.46 4.29L29.9 82Zm48.31-55.06a2.48 2.48 0 1 1 4.29 2.48l-1.85 3.2a2.47 2.47 0 0 1-4.28-2.48l1.84-3.2ZM44.66 95a2.47 2.47 0 1 1-4.28-2.48l1.85-3.2a2.47 2.47 0 0 1 4.28 2.48L44.66 95ZM59 23.11a2.47 2.47 0 0 1 4.94 0v3.69a2.47 2.47 0 0 1-4.94 0v-3.69Zm4.94 75.67a2.47 2.47 0 0 1-4.94 0v-3.7a2.47 2.47 0 1 1 4.94 0v3.7Zm29.67-70a45.46 45.46 0 1 0 13.31 32.14A45.34 45.34 0 0 0 93.58 28.8Z"/>
</symbol>


 </defs>

</svg>